<svg t="1651131556963" class="icon" viewBox="0 0 1024 1024" version="1.1" xmlns="http://www.w3.org/2000/svg" p-id="3639" width="200" height="200"><path d="M512 48C255.74 48 48 255.74 48 512s207.74 464 464 464 464-207.74 464-464S768.26 48 512 48z m3.74 808.84A44.29 44.29 0 1 1 560 812.55a44.29 44.29 0 0 1-44.26 44.29z m184.17-440c-9.57 27.4-25.29 54.69-45.47 78.92-13.1 15.73-27 30.3-40.4 44.39-17.41 18.27-33.85 35.53-47.84 54.32-17.95 24.09-24.8 50.74-21 81.49a40 40 0 0 1-34.73 44.66 40.46 40.46 0 0 1-5 0.31 40 40 0 0 1-39.64-35c-6.44-51.5 5.73-98.34 36.18-139.22 16.89-22.67 35.79-42.51 54.07-61.7 13.09-13.74 25.46-26.72 36.85-40.41 29.7-35.67 43.24-76.07 36.21-108.07-5-22.84-22.18-45-45.91-59.32a127.91 127.91 0 0 0-85.33-16.46c-67.14 10.93-113.63 77.19-103.64 147.7a40 40 0 1 1-79.21 11.23 214.38 214.38 0 0 1 36.28-152.95c31.94-45.94 79.42-76.11 133.71-84.95a206.26 206.26 0 0 1 139.48 26.9c42.81 25.81 73 66.14 82.75 110.67 6.87 31.09 4.38 63.9-7.37 97.52z" p-id="3640"></path></svg>