<svg t="1649408102927" class="icon" viewBox="0 0 1088 1024" version="1.1" xmlns="http://www.w3.org/2000/svg" p-id="2890" width="200" height="200"><path d="M294.144 341.312V1024h-230.4V341.312h230.4z m532.16-26.048c78.528 0 141.376 25.28 188.48 75.968 49.408 50.56 72.96 125.44 72.96 223.424V1024h-225.536v-382.912c0-47.36-8.96-83.648-28.032-111.168-19.072-26.432-47.168-39.68-86.4-39.68-29.184 0-52.736 7.68-72.96 23.168a157.44 157.44 0 0 0-43.776 57.216 174.72 174.72 0 0 0-7.808 55.04V1024H397.696l1.024-339.584-0.512-304.896-1.664-48.832H622.08l-0.128 95.168 8.32-11.968 18.752-23.808a322.56 322.56 0 0 1 39.232-35.2c15.744-12.16 35.968-22.016 59.52-29.696a251.392 251.392 0 0 1 78.528-9.92zM192.32 0c38.336 0 68.8 11.264 91.328 33.728 24.832 22.528 36.096 50.688 36.096 84.48 0 33.728-11.264 61.824-34.944 84.352-19.776 18.752-44.992 29.696-75.008 32.832l-19.712 0.896c-37.248 0-67.712-11.264-91.392-33.728a115.328 115.328 0 0 1-34.944-84.416c0-33.728 12.416-61.888 36.096-84.416C123.52 11.264 153.984 0 192.32 0z" p-id="2891"></path></svg>