<svg t="1650360906231" class="icon" viewBox="0 0 1097 1024" version="1.1" xmlns="http://www.w3.org/2000/svg" p-id="2948" width="200" height="200"><path d="M1024.144823 511.561875c0 282.623596-228.936816 512.438125-511.633555 512.438125C229.887672 1024 0 795.063184 0 512.439588S229.009959 0.001463 511.706698 0.001463h1.60914c281.819026-0.80457 510.024414 227.400818 510.828985 509.146701v2.413711zM396.433719 665.088513c1.609141-80.457028 25.965677-116.955261 87.771304-120.173543 25.087964-1.682283 29.183958-10.605699 27.574817-30.866241-0.80457-14.628551-0.80457-29.257101 0-44.61708 1.609141-20.333685-8.923416-26.03882-26.84339-23.625109-0.731428-0.731428-2.413711-2.413711-4.022851-2.413711 4.827422-22.747396-8.923416-23.551966-26.03882-23.551966-68.973616-0.80457-141.311798 46.299362-170.568899 111.176984a177.22489 177.22489 0 0 0 32.548524 199.02143c19.455972 27.574818 47.103933 46.299362 76.287892 63.341624 56.905062 39.789657 117.759832 35.766806 177.078604 8.923416 64.146194-29.257101 99.10843-82.797596 104.008994-153.453495 3.218281-48.713073 0.731428-97.499289 0.731427-146.212363 0-24.356537-7.314275-57.636489 5.705135-68.973616 14.628551-13.01941 38.180517 16.237691 60.123343 20.260543 24.356537 4.900564 55.222778 24.356537 72.265039 7.314275 17.115404-17.042261 4.095994-51.199927 5.705135-77.970174 0.80457-18.651402-13.82398-16.237691-25.965677-17.042262a31.89024 31.89024 0 0 0-25.161107-21.065112c-51.199927-11.410269-85.28445-43.885652-99.913-94.207866-3.291424-12.21484-8.923416-21.942826-21.942826-26.03882-4.095994-37.302804-32.475382-21.942826-51.931354-25.161107-37.449089-6.509705-50.468499 5.705135-49.590787 46.299363 3.218281 112.859267 0.80457 226.596248 0.804571 339.382372 0 84.479879-31.670812 114.541551-116.150691 110.445557l-24.356537-19.455973c0-5.631992-1.609141-10.532556-8.118846-11.337126z" fill="#040303" p-id="2949"></path><path d="M392.264582 794.112328c-29.257101-17.042261-56.027349-35.693663-75.48332-63.341623l-7.314276-26.770248c-43.081081-130.706099 34.084523-247.66136 171.37347-259.8762 1.609141 0.80457 2.413711 1.609141 4.022851 2.486854-0.731428 8.045703-1.609141 16.237691-0.731427 24.356536 3.218281 31.670812 1.535998 54.345065-43.154224 53.540495-34.084523-0.731428-58.441059 26.03882-67.364475 60.123343-8.118846 30.866242-8.118846 60.927913 23.551966 81.188455-1.609141 7.314275 3.218281 9.727986 8.923416 12.21484l24.356536 19.455972c28.452531 28.452531 62.537054 31.670812 96.694719 14.628551 33.279952-16.237691 47.908503-46.299362 47.908503-82.797596V272.82393c0-44.690222 25.161107-60.927913 71.46047-46.299362 13.01941 3.218281 18.651402 12.946267 21.942825 25.965677 14.628551 51.199927 48.713073 83.675309 99.913001 94.207865a31.817097 31.817097 0 0 1 25.161107 21.138256c-1.609141 14.628551-1.609141 29.257101-0.804571 44.617079 3.218281 30.061671-7.314275 36.571376-37.375946 31.670812-37.302804-6.509705-70.655899-22.674253-108.031846-41.398798 0 74.67875 0.80457 143.725509 0 211.967697a191.414584 191.414584 0 0 1-170.568899 185.124307c-29.257101 2.413711-56.027349-7.314275-84.47988-5.705135z" fill="#FBF7F8" p-id="2950"></path><path d="M392.264582 794.112328c28.452531-1.609141 55.222778 8.118846 84.47988 4.900565A191.487726 191.487726 0 0 0 646.581933 613.084016c0.80457-68.242188 0-137.288947 0-211.967698 37.302804 18.651402 70.655899 34.889093 108.031846 41.398798 29.257101 4.900564 39.789657-1.609141 37.302804-31.670811-0.731428-14.628551 0-29.257101 0.877713-43.885652 11.337127 0.877713 26.770247-1.609141 25.965677 17.115404-1.609141 26.770247 12.21484 60.85477-5.705135 77.970174-17.846832 17.042261-47.908503-2.486854-72.265039-7.314275-21.942826-4.900564-46.299362-34.157665-60.123343-20.333685-12.141697 12.21484-4.827422 45.494792-5.631992 69.046758-0.80457 48.713073 2.413711 97.426147-0.80457 146.13922-4.900564 69.851329-39.8628 123.464966-104.008994 153.453495-60.0502 26.84339-120.978113 30.866242-177.883175-8.923416z" fill="#EA2254" p-id="2951"></path><path d="M644.89965 224.915427c-46.299362-14.628551-71.460469 1.609141-71.460469 46.299363v356.497776c0 36.571376-15.433121 66.559905-47.908503 82.797596-34.157665 17.042261-68.242188 13.897123-96.694719-14.62855 83.675309 4.900564 116.150691-25.965677 116.150691-110.445557 0-112.859267 2.413711-226.523105-0.80457-339.382372-0.80457-40.594228 12.141697-53.613638 49.517643-46.299363 18.724545 4.095994 47.908503-11.337127 51.199927 25.161107z" fill="#68BDC3" p-id="2952"></path><path d="M480.035886 444.1974C342.746939 455.534526 265.508192 572.489788 308.662416 704.000457c3.218281 8.923416 4.827422 17.919974 7.314275 26.84339a177.005461 177.005461 0 0 1-32.548524-198.948287c29.257101-65.023907 102.399854-112.054697 170.568899-111.250127 17.115404 0 31.670812 0.731428 26.03882 23.551967z" fill="#69C3C9" p-id="2953"></path><path d="M396.360577 665.01537c-31.670812-20.260542-31.670812-50.322214-23.551967-81.188455 8.923416-34.084523 34.084523-60.123343 67.437618-60.123343 44.617079 0.877713 46.22622-21.065113 43.007939-53.540495 0-8.118846 0-16.237691 0.80457-24.356537 18.724545-3.291424 28.452531 2.413711 26.84339 23.551967-0.80457 14.628551-0.80457 29.257101 0 44.617079 1.609141 20.333685-1.682283 29.257101-27.64796 30.866241-60.927913 4.095994-85.28445 39.789657-86.89359 120.173543z" fill="#EA2254" p-id="2954"></path><path d="M404.479422 676.571925c-5.705135-2.486854-9.727986-4.973707-8.923416-12.287983 7.314275 1.609141 8.923416 6.509705 8.923416 12.21484z" fill="#EA2254" p-id="2955"></path></svg>