<svg t="1649408033480" class="icon" viewBox="0 0 1389 1024" version="1.1" xmlns="http://www.w3.org/2000/svg" p-id="2455" width="200" height="200"><path d="M959.020372 0.030719a269.15764 269.15764 0 0 1 191.701678 84.404325 526.539632 526.539632 0 0 0 166.760711-59.975344 254.602648 254.602648 0 0 1-115.562247 140.795777 531.80576 531.80576 0 0 0 150.889187-38.54513 519.737551 519.737551 0 0 1-131.068068 131.506912c0.511985 10.971099 0.731407 22.08848 0.731407 33.279002C1222.47304 631.819765 958.435247 1024 475.48745 1024c-148.402405 0-286.345695-43.372413-402.63935-117.756467 20.479386 2.413642 41.470756 3.657033 62.681548 3.657033a529.099556 529.099556 0 0 0 326.134216-110.808104 263.891512 263.891512 0 0 1-245.313783-182.412814c16.017805 3.218189 32.401314 4.973565 49.369947 5.119847 23.916997 0 47.102587-2.925627 69.191068-8.77688a264.403496 264.403496 0 0 1-209.694281-234.488965l-1.023969-26.842624c35.400081 19.967401 75.846867 32.181892 118.926718 34.010409a264.476637 264.476637 0 0 1-116.805639-219.056286c0-47.980275 13.019038-92.742361 35.546362-131.068068a754.080235 754.080235 0 0 0 541.387187 279.10477 254.89521 254.89521 0 0 1-6.802082-59.243937c0-143.209418 117.610186-257.601415 262.57498-255.407195z"  p-id="2456"></path></svg>