<svg t="1649408009733" class="icon" viewBox="0 0 1462 1024" version="1.1" xmlns="http://www.w3.org/2000/svg" p-id="2310" width="200" height="200"><path d="M1433.497607 159.952003c-16.017142-62.898364-63.190915-112.48568-122.871223-129.307335C1202.236412 0 767.652596 0 767.652596 0S333.068781 0 224.678809 30.498393c-59.899721 16.821656-106.854082 66.335833-122.871224 129.307335C72.91822 273.900436 72.91822 511.963431 72.91822 511.963431s0 238.062996 29.03564 352.011428c15.944004 62.898364 63.117777 112.48568 122.798086 129.307335C333.068781 1023.926862 767.652596 1023.926862 767.652596 1023.926862s434.583815 0 542.973788-30.717806c59.826584-16.748518 106.854082-66.262696 122.871223-129.234197 28.962503-113.948432 28.962503-352.011428 28.962503-352.011428s0-238.062996-29.03564-352.011428z m-803.855724 570.473538V293.501321l359.837154 216.853082-359.837154 220.144276z"  p-id="2311"></path></svg>