<svg width="18" height="18" viewBox="0 0 18 18" fill="none" xmlns="http://www.w3.org/2000/svg">
<circle cx="9" cy="9" r="9" fill="white"/>
<g opacity="0.8">
<path fill-rule="evenodd" clip-rule="evenodd" d="M8.5293 12.5294C8.5293 12.7882 8.74106 13 8.99989 13C9.25871 13 9.47047 12.7882 9.47047 12.5294V9.4706H12.5294C12.7882 9.4706 13 9.25883 13 9.00001C13 8.74118 12.7882 8.52942 12.5294 8.52942H9.47047V5.47059C9.47047 5.21176 9.25871 5 8.99989 5C8.74106 5 8.5293 5.21176 8.5293 5.47059V8.52942H5.47059C5.21176 8.52942 5 8.74118 5 9.00001C5 9.25883 5.21176 9.4706 5.47059 9.4706H8.5293V12.5294Z" fill="#FF8D00"/>
<path d="M9.47047 9.4706V9.2706H9.27047V9.4706H9.47047ZM9.47047 8.52942H9.27047V8.72942H9.47047V8.52942ZM8.5293 8.52942V8.72942H8.7293V8.52942H8.5293ZM8.5293 9.4706H8.7293V9.2706H8.5293V9.4706ZM8.99989 12.8C8.85152 12.8 8.7293 12.6778 8.7293 12.5294H8.3293C8.3293 12.8987 8.6306 13.2 8.99989 13.2V12.8ZM9.27047 12.5294C9.27047 12.6778 9.14825 12.8 8.99989 12.8V13.2C9.36917 13.2 9.67047 12.8987 9.67047 12.5294H9.27047ZM9.27047 9.4706V12.5294H9.67047V9.4706H9.27047ZM12.5294 9.2706H9.47047V9.6706H12.5294V9.2706ZM12.8 9.00001C12.8 9.14837 12.6778 9.2706 12.5294 9.2706V9.6706C12.8987 9.6706 13.2 9.36929 13.2 9.00001H12.8ZM12.5294 8.72942C12.6778 8.72942 12.8 8.85164 12.8 9.00001H13.2C13.2 8.63073 12.8987 8.32942 12.5294 8.32942V8.72942ZM9.47047 8.72942H12.5294V8.32942H9.47047V8.72942ZM9.27047 5.47059V8.52942H9.67047V5.47059H9.27047ZM8.99989 5.2C9.14825 5.2 9.27047 5.32222 9.27047 5.47059H9.67047C9.67047 5.10131 9.36917 4.8 8.99989 4.8V5.2ZM8.7293 5.47059C8.7293 5.32222 8.85152 5.2 8.99989 5.2V4.8C8.6306 4.8 8.3293 5.10131 8.3293 5.47059H8.7293ZM8.7293 8.52942V5.47059H8.3293V8.52942H8.7293ZM5.47059 8.72942H8.5293V8.32942H5.47059V8.72942ZM5.2 9.00001C5.2 8.85164 5.32222 8.72942 5.47059 8.72942V8.32942C5.10131 8.32942 4.8 8.63073 4.8 9.00001H5.2ZM5.47059 9.2706C5.32222 9.2706 5.2 9.14837 5.2 9.00001H4.8C4.8 9.36929 5.10131 9.6706 5.47059 9.6706V9.2706ZM8.5293 9.2706H5.47059V9.6706H8.5293V9.2706ZM8.7293 12.5294V9.4706H8.3293V12.5294H8.7293Z" fill="#FF8D00"/>
</g>
</svg>
