<svg width="14" height="14" viewBox="0 0 14 14" fill="none" xmlns="http://www.w3.org/2000/svg">
<mask id="mask0_44_825" style="mask-type:alpha" maskUnits="userSpaceOnUse" x="0" y="0" width="14" height="14">
<rect width="14" height="14" fill="#C4C4C4"/>
</mask>
<g mask="url(#mask0_44_825)">
<path fill-rule="evenodd" clip-rule="evenodd" d="M13.1765 6.50002C13.1765 2.91018 10.2268 0 6.58825 0C2.94969 0 0 2.91018 0 6.50002C0 10.0898 2.94969 13 6.58825 13C8.36347 13 9.97471 12.3073 11.1594 11.1808L12.795 12.796C12.9329 12.932 13.1135 13 13.2941 13C13.4747 13 13.6553 12.932 13.7932 12.796C14.0689 12.5242 14.0689 12.083 13.7932 11.8112L12.0677 10.1101C12.7681 9.07746 13.1765 7.83579 13.1765 6.50002ZM1.41177 6.50002C1.41177 3.68391 3.73391 1.39286 6.58825 1.39286C9.44255 1.39286 11.7647 3.68391 11.7647 6.50002C11.7647 9.31609 9.44256 11.6072 6.58825 11.6072C3.73392 11.6072 1.41177 9.3161 1.41177 6.50002Z" fill="#343A56"/>
</g>
</svg>
