<svg width="18" height="18" viewBox="0 0 18 18" fill="none" xmlns="http://www.w3.org/2000/svg">
<path d="M16.4017 10.7452C14.5951 13.1874 11.9516 14.7314 9 14.7314C6.04867 14.7314 3.40514 13.1874 1.59833 10.7452C0.800555 9.6671 0.800555 8.06461 1.59833 6.98623C3.40514 4.54408 6.04867 3 9 3C11.9516 3 14.5951 4.54408 16.4017 6.98623C17.1994 8.06461 17.1994 9.6671 16.4017 10.7452ZM15.5994 7.87176C13.9235 5.45362 11.5115 4.06691 8.98186 4.06691C6.45223 4.06691 4.04022 5.45362 2.36437 7.87176C1.96508 8.44789 1.96508 9.28408 2.36437 9.86021C4.04022 12.2784 6.45223 13.6653 8.98186 13.6653C11.5115 13.6653 13.9235 12.2784 15.5994 9.85994C15.9986 9.28408 15.9986 8.44789 15.5994 7.87176ZM9.00533 12.5968C6.943 12.5968 5.27116 10.925 5.27116 8.86265C5.27116 6.80032 6.943 5.12848 9.00533 5.12848C11.0677 5.12848 12.7395 6.80032 12.7395 8.86265C12.7395 10.925 11.0677 12.5968 9.00533 12.5968ZM9.00533 6.19539C7.5322 6.19539 6.33807 7.38952 6.33807 8.86265C6.33807 10.3358 7.5322 11.5299 9.00533 11.5299C10.4785 11.5299 11.6726 10.3358 11.6726 8.86265C11.6726 7.38952 10.4785 6.19539 9.00533 6.19539Z" fill="#343A56" stroke="#343A56" stroke-width="0.1"/>
</svg>
