<svg width="21" height="16" viewBox="0 0 21 16" fill="none" xmlns="http://www.w3.org/2000/svg">
<path d="M3.8102 10.0817C3.91552 10.232 4.02385 10.3763 4.13619 10.5157L4.13419 10.5177C4.27799 10.7332 4.33272 10.9959 4.2869 11.2508C4.24107 11.5058 4.09825 11.7331 3.88838 11.8851C3.67851 12.0371 3.41788 12.1021 3.16114 12.0663C2.90441 12.0306 2.67149 11.8969 2.51123 11.6933C2.39287 11.544 2.27852 11.3896 2.16718 11.2313C1.51118 10.2952 0.293457 8.42799 0.293457 7.92687C0.293457 7.42574 1.51017 5.55756 2.16618 4.62247C6.15837 -1.07728 14.6072 -1.07728 18.6004 4.62247C19.2564 5.55756 20.4731 7.46483 20.4731 7.92687C20.4731 8.3879 19.2564 10.2962 18.6004 11.2313C15.6805 15.3996 10.3773 16.5191 6.17643 14.5908L6.17743 14.5878C6.05309 14.5325 5.94132 14.4524 5.84893 14.3526C5.75653 14.2527 5.68544 14.1351 5.63998 14.0069C5.59452 13.8787 5.57565 13.7427 5.58451 13.607C5.59337 13.4712 5.62978 13.3388 5.69151 13.2176C5.75325 13.0964 5.83903 12.989 5.94363 12.902C6.04823 12.815 6.16945 12.7501 6.29993 12.7114C6.4304 12.6727 6.5674 12.6609 6.70257 12.6768C6.83775 12.6927 6.96827 12.7359 7.08621 12.8038V12.8008C10.4364 14.3001 14.6373 13.3931 16.9564 10.0817C17.2603 9.64872 17.6996 8.98123 18.0567 8.37988C18.155 8.2125 18.2423 8.06016 18.3155 7.92687C18.2423 7.79357 18.155 7.64022 18.0567 7.47385C17.7101 6.89403 17.3434 6.32642 16.9574 5.77204C13.7636 1.21184 7.00395 1.21184 3.8102 5.77204C3.50126 6.21303 3.06191 6.87251 2.70683 7.46483C2.60552 7.63621 2.51625 7.79156 2.44302 7.92687C2.51625 8.06217 2.60552 8.21751 2.70783 8.3889C3.05655 8.96534 3.42455 9.52992 3.8112 10.0817H3.8102ZM12.3904 7.92687C12.3904 7.66363 12.3385 7.40298 12.2377 7.15978C12.1369 6.91659 11.9891 6.69561 11.8028 6.50948C11.6165 6.32335 11.3954 6.1757 11.152 6.07496C10.9086 5.97423 10.6477 5.92238 10.3843 5.92238C10.1208 5.92238 9.85996 5.97423 9.61657 6.07496C9.37317 6.1757 9.15202 6.32335 8.96573 6.50948C8.77945 6.69561 8.63168 6.91659 8.53086 7.15978C8.43004 7.40298 8.37815 7.66363 8.37815 7.92687C8.37815 8.45849 8.58951 8.96834 8.96573 9.34425C9.34196 9.72016 9.85222 9.93135 10.3843 9.93135C10.9163 9.93135 11.4266 9.72016 11.8028 9.34425C12.179 8.96834 12.3904 8.45849 12.3904 7.92687ZM14.3965 7.92687C14.3965 8.99011 13.9738 10.0098 13.2214 10.7616C12.4689 11.5135 11.4484 11.9358 10.3843 11.9358C9.32016 11.9358 8.29963 11.5135 7.54719 10.7616C6.79474 10.0098 6.37202 8.99011 6.37202 7.92687C6.37202 6.86362 6.79474 5.84392 7.54719 5.09209C8.29963 4.34027 9.32016 3.9179 10.3843 3.9179C11.4484 3.9179 12.4689 4.34027 13.2214 5.09209C13.9738 5.84392 14.3965 6.86362 14.3965 7.92687Z" fill="#008CFF"/>
</svg>
