<svg width="18" height="18" viewBox="0 0 18 18" fill="none" xmlns="http://www.w3.org/2000/svg">
<circle cx="9" cy="9" r="9" fill="white"/>
<path opacity="0.8" d="M13.1648 5.05495C13.4333 5.32344 13.4557 5.74484 13.2319 6.03881L13.1648 6.11561L10.1705 9.1091L13.1648 12.1042C13.4577 12.3971 13.4577 12.872 13.1648 13.1649C12.8963 13.4333 12.4749 13.4557 12.181 13.232L12.1042 13.1649L9.10986 10.1698L6.11557 13.1649C5.82268 13.4577 5.34781 13.4577 5.05491 13.1649C4.78643 12.8964 4.76405 12.475 4.98779 12.181L5.05491 12.1042L8.0492 9.1091L5.05491 6.11561C4.76202 5.82272 4.76202 5.34784 5.05491 5.05495C5.3234 4.78647 5.7448 4.76409 6.03877 4.98783L6.11557 5.05495L9.10986 8.04844L12.1042 5.05495C12.397 4.76206 12.8719 4.76206 13.1648 5.05495Z" fill="#ff4642"/>
</svg>
