<svg width="18" height="18" viewBox="0 0 18 18" fill="none" xmlns="http://www.w3.org/2000/svg">
<circle cx="9" cy="9" r="9" fill="white"/>
<path opacity="0.8" d="M5.08274 9.90945L5.08272 9.90942C4.83909 9.66572 4.83909 9.27068 5.08272 9.02698L5.08274 9.02696C5.32644 8.78334 5.72148 8.78334 5.96518 9.02696L5.96519 9.02697L7.68366 10.7454L12.3464 6.08273L12.3464 6.08272C12.5901 5.83909 12.9851 5.83909 13.2288 6.08272L13.2289 6.08274C13.4725 6.32644 13.4725 6.72148 13.2289 6.96518L13.2288 6.96519L8.38332 11.81L5.08274 9.90945ZM5.08274 9.90945L6.98401 11.81M5.08274 9.90945L6.98401 11.81M6.98401 11.81L6.98408 11.8101C7.16952 11.9958 7.42122 12.1001 7.68366 12.1M6.98401 11.81L8.38326 11.8101C8.19782 11.9958 7.94611 12.1001 7.68366 12.1M7.68366 12.1C7.68365 12.1 7.68364 12.1 7.68362 12.1L7.68366 12L7.68371 12.1C7.68369 12.1 7.68368 12.1 7.68366 12.1Z" fill="#04AE1C" stroke="#04AE1C" stroke-width="0.2"/>
</svg>
