<svg width="18" height="18" viewBox="0 0 18 18" fill="none" xmlns="http://www.w3.org/2000/svg">
<path d="M4.79011 15C3.8044 15 3 14.2147 3 13.2451V4.75492C3 3.78858 3.8044 3 4.79011 3C5.1 3 5.40659 3.0808 5.68022 3.23593L13.1835 7.48263C13.744 7.79935 14.0769 8.36817 14.0769 9.00162C14.0769 9.63507 13.744 10.2039 13.1835 10.5206L5.68352 14.7641C5.40659 14.9192 5.1 15 4.79011 15ZM4.79011 4.36063C4.5956 4.36063 4.38462 4.51252 4.38462 4.75815V13.2483C4.38462 13.5812 4.74396 13.7299 4.99121 13.5909L12.4912 9.3442C12.6725 9.24078 12.6923 9.07272 12.6923 9.00162C12.6923 8.93051 12.6725 8.76246 12.4912 8.65904L4.99121 4.41234C4.92527 4.37678 4.85934 4.36063 4.79011 4.36063Z" fill="#343A56"/>
</svg>
