<svg width="20" height="20" viewBox="0 0 20 20" fill="none" xmlns="http://www.w3.org/2000/svg">
<path d="M4 5.5C4 4.67157 4.67157 4 5.5 4C6.32843 4 7 4.67157 7 5.5C7 6.32843 6.32843 7 5.5 7C4.67157 7 4 6.32843 4 5.5Z" fill="white"/>
<path d="M10 4C9.44772 4 9 4.44772 9 5V6C9 6.55228 9.44771 7 10 7H15C15.5523 7 16 6.55228 16 6V5C16 4.44772 15.5523 4 15 4H10Z" fill="white"/>
<path d="M4 10C4 9.17157 4.67157 8.5 5.5 8.5C6.32843 8.5 7 9.17157 7 10C7 10.8284 6.32843 11.5 5.5 11.5C4.67157 11.5 4 10.8284 4 10Z" fill="white"/>
<path d="M10 8.5C9.44772 8.5 9 8.94771 9 9.5V10.5C9 11.0523 9.44771 11.5 10 11.5H15C15.5523 11.5 16 11.0523 16 10.5V9.5C16 8.94772 15.5523 8.5 15 8.5H10Z" fill="white"/>
<path d="M4 14.5C4 13.6716 4.67157 13 5.5 13C6.32843 13 7 13.6716 7 14.5C7 15.3284 6.32843 16 5.5 16C4.67157 16 4 15.3284 4 14.5Z" fill="white"/>
<path d="M10 13C9.44772 13 9 13.4477 9 14V15C9 15.5523 9.44771 16 10 16H15C15.5523 16 16 15.5523 16 15V14C16 13.4477 15.5523 13 15 13H10Z" fill="white"/>
<path d="M3 0C1.34315 0 0 1.34315 0 3V17C0 18.6569 1.34315 20 3 20H17C18.6569 20 20 18.6569 20 17V3C20 1.34315 18.6569 0 17 0H3ZM17 2C17.5523 2 18 2.44771 18 3V17C18 17.5523 17.5523 18 17 18H3C2.44772 18 2 17.5523 2 17V3C2 2.44772 2.44771 2 3 2H17Z" fill="white"/>
</svg>
