<svg t="1649408129219" class="icon" viewBox="0 0 1024 1024" version="1.1" xmlns="http://www.w3.org/2000/svg" p-id="2198" width="200" height="200"><path d="M921.6 0H102.4A102.848 102.848 0 0 0 0 102.4v819.2A102.784 102.784 0 0 0 102.4 1024h819.2a102.848 102.848 0 0 0 102.4-102.4V102.4A102.848 102.848 0 0 0 921.6 0zM300.608 617.152a90.048 90.048 0 0 0 119.232-44.544h70.848a157.44 157.44 0 1 1 0-74.688H419.84a90.048 90.048 0 1 0-119.232 119.232z m484.032 36.096a156.992 156.992 0 0 1-189.888 10.688v16.192H530.368V229.12h64v175.36c22.848-15.424 49.28-24.704 76.8-26.88h11.52a156.608 156.608 0 0 1 101.952 275.648z m-9.536-118.016a89.792 89.792 0 1 1-179.52 3.84 89.792 89.792 0 0 1 179.52-3.84z"  p-id="2199"></path></svg>