<svg t="1649848070202" class="icon" viewBox="0 0 1024 1024" version="1.1" xmlns="http://www.w3.org/2000/svg" p-id="1932" width="200" height="200"><path d="M480 320a21.333333 21.333333 0 0 0 21.333333 21.333333h21.333334a21.333333 21.333333 0 0 0 21.333333-21.333333v-128a21.333333 21.333333 0 0 0-21.333333-21.333333h-21.333334a21.333333 21.333333 0 0 0-21.333333 21.333333v128zM480 832a21.333333 21.333333 0 0 0 21.333333 21.333333h21.333334a21.333333 21.333333 0 0 0 21.333333-21.333333v-128a21.333333 21.333333 0 0 0-21.333333-21.333333h-21.333334a21.333333 21.333333 0 0 0-21.333333 21.333333v128zM744.661333 762.325333a21.333333 21.333333 0 0 1-30.165333 0l-90.496-90.496a21.333333 21.333333 0 0 1 0-30.165333l15.061333-15.104a21.333333 21.333333 0 0 1 30.165334 0l90.496 90.496a21.333333 21.333333 0 0 1 0 30.208l-15.061334 15.061333zM354.816 397.482667a21.333333 21.333333 0 0 0 30.165333 0l15.104-15.104a21.333333 21.333333 0 0 0 0-30.165334L309.546667 261.717333a21.333333 21.333333 0 0 0-30.165334 0l-15.061333 15.104a21.333333 21.333333 0 0 0 0 30.165334l90.453333 90.496zM623.914667 382.421333a21.333333 21.333333 0 0 1 0-30.165333l90.453333-90.496a21.333333 21.333333 0 0 1 30.208 0l15.104 15.061333a21.333333 21.333333 0 0 1 0 30.208l-90.538667 90.453334a21.333333 21.333333 0 0 1-30.165333 0l-15.104-15.061334zM261.546667 714.581333a21.333333 21.333333 0 0 0 0 30.165334l15.104 15.104a21.333333 21.333333 0 0 0 30.165333 0l90.538667-90.538667a21.333333 21.333333 0 0 0 0-30.165333l-15.104-15.061334a21.333333 21.333333 0 0 0-30.165334 0l-90.496 90.453334zM853.333333 522.666667a21.333333 21.333333 0 0 1-21.333333 21.333333h-128a21.333333 21.333333 0 0 1-21.333333-21.333333v-21.333334a21.333333 21.333333 0 0 1 21.333333-21.333333h128a21.333333 21.333333 0 0 1 21.333333 21.333333v21.333334zM320 544a21.333333 21.333333 0 0 0 21.333333-21.333333v-21.333334a21.333333 21.333333 0 0 0-21.333333-21.333333h-128a21.333333 21.333333 0 0 0-21.333333 21.333333v21.333334a21.333333 21.333333 0 0 0 21.333333 21.333333h128z" p-id="1933"></path></svg>