<svg t="1650371398113" class="icon" viewBox="0 0 1024 1024" version="1.1" xmlns="http://www.w3.org/2000/svg" p-id="3540" width="200" height="200"><path d="M329.142857 73.142857A36.571429 36.571429 0 0 1 365.714286 36.571429h585.142857a36.571429 36.571429 0 0 1 36.571428 36.571428v877.714286a36.571429 36.571429 0 0 1-36.571428 36.571428H365.714286a36.571429 36.571429 0 0 1-36.571429-36.571428V694.857143a36.571429 36.571429 0 0 1 73.142857 0v219.428571h512v-804.571428h-512v219.428571a36.571429 36.571429 0 0 1-73.142857 0V73.142857z" fill="#343A56" p-id="3541"></path><path d="M161.426286 475.428571l83.894857-83.821714a36.571429 36.571429 0 1 0-51.785143-51.785143l-146.285714 146.285715a36.571429 36.571429 0 0 0 0 51.785142l146.285714 146.285715a36.571429 36.571429 0 1 0 51.785143-51.785143L161.426286 548.571429H621.714286a36.571429 36.571429 0 0 0 0-73.142858H161.426286z" fill="#343A56" p-id="3542"></path></svg>