<svg width="18" height="18" viewBox="0 0 18 18" fill="none" xmlns="http://www.w3.org/2000/svg">
<circle cx="9" cy="9" r="9" fill="white"/>
<path opacity="0.8" d="M11.5671 5.02119H11.5673C12.0996 5.02119 12.3658 5.28737 12.3658 5.81971V12.2015C12.3658 12.7338 12.0996 13 11.5673 13H11.5671C11.0347 13 10.7686 12.7338 10.7686 12.2015V5.81971C10.7686 5.28737 11.0347 5.02119 11.5671 5.02119Z" fill="#FF8D00"/>
<path opacity="0.8" d="M6.81932 5H6.81913C7.36535 5 7.63846 5.27311 7.63846 5.81932V12.1595C7.63846 12.7057 7.36535 12.9788 6.81913 12.9788H6.81932C6.27311 12.9788 6 12.7057 6 12.1595V5.81932C6 5.27311 6.27311 5 6.81932 5V5Z" fill="#FF8D00"/>
</svg>
