<svg width="12" height="12" viewBox="0 0 12 12" fill="none" xmlns="http://www.w3.org/2000/svg">
<path d="M11.7046 0.295367C12.0703 0.66106 12.0964 1.23773 11.783 1.63357L11.7046 1.72153L7.42545 5.99929L11.7046 10.2785C12.0985 10.6723 12.0985 11.3108 11.7046 11.7046C11.3389 12.0703 10.7623 12.0964 10.3664 11.783L10.2785 11.7046L5.99929 7.42545L1.72153 11.7046C1.3277 12.0985 0.68919 12.0985 0.295367 11.7046C-0.0703255 11.3389 -0.0964464 10.7623 0.217004 10.3664L0.295367 10.2785L4.57313 5.99929L0.295367 1.72153C-0.0984557 1.3277 -0.0984557 0.68919 0.295367 0.295367C0.66106 -0.0703255 1.23773 -0.0964464 1.63357 0.217004L1.72153 0.295367L5.99929 4.57313L10.2785 0.295367C10.6723 -0.0984557 11.3108 -0.0984557 11.7046 0.295367Z" fill="#848BA4"/>
</svg>
