<svg width="12" height="12" viewBox="0 0 12 12" fill="none" xmlns="http://www.w3.org/2000/svg">
<path d="M0 6C0 7.5913 0.632141 9.11742 1.75736 10.2426C2.88258 11.3679 4.4087 12 6 12C7.5913 12 9.11742 11.3679 10.2426 10.2426C11.3679 9.11742 12 7.5913 12 6C12 4.4087 11.3679 2.88258 10.2426 1.75736C9.11742 0.632141 7.5913 0 6 0C4.4087 0 2.88258 0.632141 1.75736 1.75736C0.632141 2.88258 0 4.4087 0 6Z" fill="#FF9315"/>
<path d="M5.5 3C5.5 2.72386 5.72386 2.5 6 2.5C6.27614 2.5 6.5 2.72386 6.5 3V7C6.5 7.27614 6.27614 7.5 6 7.5C5.72386 7.5 5.5 7.27614 5.5 7V3Z" fill="white"/>
<path d="M6.59844 8.6C6.59844 8.93137 6.32981 9.2 5.99844 9.2C5.66707 9.2 5.39844 8.93137 5.39844 8.6C5.39844 8.26863 5.66707 8 5.99844 8C6.32981 8 6.59844 8.26863 6.59844 8.6Z" fill="white"/>
</svg>
