<svg width="18" height="18" viewBox="0 0 18 18" fill="none" xmlns="http://www.w3.org/2000/svg">
<path d="M9.29736 16.6C8.03279 16.5991 6.79013 16.2699 5.69104 15.6447C4.59194 15.0196 3.67409 14.1198 3.02734 13.0335C2.38059 11.9472 2.02711 10.7117 2.0015 9.44783C1.97589 8.18398 2.27903 6.93513 2.88125 5.82357C3.48347 4.712 4.36412 3.77581 5.43699 3.10665C6.50986 2.4375 7.73816 2.0583 9.00166 2.0062C10.2652 1.9541 11.5205 2.23088 12.6449 2.80943C13.7692 3.38799 14.724 4.24849 15.4158 5.3067C15.4909 5.43835 15.5127 5.59378 15.4765 5.74098C15.4404 5.88817 15.3492 6.01591 15.2217 6.09786C15.0941 6.17982 14.94 6.20975 14.7911 6.18149C14.6421 6.15322 14.5097 6.06892 14.4211 5.94595C13.6175 4.71476 12.3976 3.81382 10.9842 3.40786C9.57081 3.00189 8.05848 3.11803 6.72373 3.73503C5.38897 4.35204 4.32096 5.42868 3.71499 6.7681C3.10903 8.10753 3.00558 9.62023 3.42358 11.0296C3.84157 12.439 4.75308 13.6509 5.99143 14.4438C7.22977 15.2366 8.71222 15.5574 10.1677 15.3475C11.6232 15.1375 12.9545 14.4109 13.9181 13.3005C14.8818 12.1901 15.4134 10.77 15.4158 9.3C15.4158 9.14302 15.4782 8.99247 15.5892 8.88147C15.7003 8.77047 15.8509 8.70811 16.0079 8.70811C16.1649 8.70811 16.3155 8.77047 16.4266 8.88147C16.5376 8.99247 16.6 9.14302 16.6 9.3C16.5957 13.33 13.3288 16.5957 9.29736 16.6Z" fill="#343A56"/>
<path d="M15.9606 3.6532V6.02077C15.9606 6.41536 15.7632 6.61266 15.3685 6.61266C14.9737 6.61266 14.7764 6.41536 14.7764 6.02077V3.6532C14.7764 3.25861 14.9737 3.06131 15.3685 3.06131C15.7632 3.06131 15.9606 3.25861 15.9606 3.6532Z" fill="#343A56"/>
<path d="M12.9998 5.42902H15.3682C15.763 5.42902 15.9604 5.62638 15.9604 6.02112C15.9604 6.41586 15.763 6.61323 15.3682 6.61323H12.9998C12.6051 6.61323 12.4077 6.41586 12.4077 6.02112C12.4077 5.62638 12.6051 5.42902 12.9998 5.42902Z" fill="#343A56"/>
</svg>
