<svg width="18" height="18" viewBox="0 0 18 18" fill="none" xmlns="http://www.w3.org/2000/svg">
<path fill-rule="evenodd" clip-rule="evenodd" d="M1 3.27737C1 2.01837 2.02002 1 3.27737 1H14.7226C15.98 1 17 2.01837 17 3.27737V14.7226C17 15.9799 15.9799 17 14.7226 17H12.2701C11.9161 17 11.6277 16.7116 11.6277 16.3577C11.6277 16.0037 11.9161 15.7153 12.2701 15.7153H14.7226C15.2701 15.7153 15.7153 15.2701 15.7153 14.7226V6.37226H2.28467V14.7226C2.28467 15.2701 2.72989 15.7153 3.27737 15.7153H5.72993C6.08391 15.7153 6.37226 16.0037 6.37226 16.3577C6.37226 16.7116 6.08391 17 5.72993 17H3.27737C2.02011 17 1 15.9799 1 14.7226V3.27737ZM3.27737 2.28467C2.72989 2.28467 2.28467 2.72989 2.28467 3.27737V5.08759H15.7153V3.27737C15.7153 2.72989 15.2701 2.28467 14.7226 2.28467H3.27737ZM8.34091 8.34108C8.70498 7.97702 9.29479 7.97702 9.65886 8.34108L12.3505 11.0327C12.6013 11.2836 12.6014 11.6908 12.3506 11.9417C12.0997 12.191 11.6922 12.191 11.4413 11.9401L9.64222 10.141V16.3577C9.64222 16.7117 9.35386 17.0001 8.99989 17.0001C8.64591 17.0001 8.35755 16.7117 8.35755 16.3577V10.1428L6.5585 11.9419C6.30757 12.1928 5.90024 12.1928 5.64931 11.9419C5.39838 11.6909 5.39838 11.2836 5.64931 11.0327L8.34091 8.34108Z" fill="#343A56"/>
</svg>
